<?xml version="1.0" encoding="UTF-8" standalone="no"?><!DOCTYPE svg PUBLIC "-//W3C//DTD SVG 1.1//EN" "http://www.w3.org/Graphics/SVG/1.1/DTD/svg11.dtd"><svg width="100%" height="100%" viewBox="0 0 11811 11811" version="1.1" xmlns="http://www.w3.org/2000/svg" xmlns:xlink="http://www.w3.org/1999/xlink" xml:space="preserve" xmlns:serif="http://www.serif.com/" style="fill-rule:evenodd;clip-rule:evenodd;stroke-linejoin:round;stroke-miterlimit:2;"><path d="M9093.157,11596.978c-239.392,-142.643 -288.558,-179.446 -455.949,-340.871c-162.495,-156.776 -229.826,-207.896 -503.037,-381.623c-236.656,-150.44 -357.925,-239.309 -485.201,-355.436c-93.374,-85.166 -277.408,-248.299 -408.86,-362.574c-238.98,-207.547 -239.392,-207.794 -532.29,-348.832c-161.281,-77.617 -319.58,-152.353 -351.898,-166.013c-49.084,-20.818 -66.858,-42.028 -107.754,-128.902c-68.462,-145.277 -68.462,-255.129 -0.082,-387.713l49.495,-95.864l-60.83,44.681c-71.281,52.458 -141.656,137.171 -169.222,203.864c-41.308,99.628 47.397,320.382 164.655,409.827c29.315,22.341 50.298,43.715 46.677,47.397c-3.682,3.621 -45.484,-7.797 -92.819,-25.55c-63.155,-23.616 -106.787,-54.885 -163.997,-117.484c-42.912,-46.924 -77.946,-91.688 -77.946,-99.484c0,-7.797 -7.077,-14.215 -15.758,-14.215c-20.901,0 -3.703,71.507 32.462,134.991c40.176,70.643 1.461,67.351 -69.655,-5.863c-66.302,-68.215 -77.802,-121.825 -63.813,-296.437c11.726,-146.017 42.583,-216.639 143.446,-328.343c29.726,-32.873 49.968,-59.781 44.99,-59.781c-4.978,0 -46.286,16.478 -91.688,36.556c-162.886,72.001 -239.865,197.117 -220.898,358.81l9.237,79.057l-466.564,-169.222c-256.651,-93.066 -499.499,-175.825 -539.593,-183.869c-161.528,-32.297 -257.865,-110.655 -291.541,-237.046c-9.01,-33.923 -22.67,-73.77 -30.384,-88.478c-34.622,-66.302 -2.962,-224.991 58.423,-292.816c13.742,-15.12 18.412,-27.566 10.368,-27.566c-23.616,0 -154.451,142.232 -182.964,199.051c-30.94,61.468 -23.225,139.66 24.501,247.744c39.703,89.918 110.49,163.359 202.98,210.612c40.259,20.572 73.297,41.534 73.297,46.595c0,13.68 -139.434,-9.545 -192.859,-32.133c-25.488,-10.759 -81.011,-48.384 -123.347,-83.582c-82.698,-68.689 -108.165,-62.435 -54.247,13.269c38.963,54.803 18.473,60.357 -55.132,14.873c-81.71,-50.544 -116.682,-122.956 -132.419,-274.425c-18.72,-179.528 0.967,-249.266 97.468,-345.788c40.341,-40.341 65.006,-73.111 54.803,-72.885c-47.088,1.049 -162.392,77.802 -209.892,139.578l-52.396,68.236l11.17,-61.715c15.84,-87.676 72.803,-178.15 163.853,-259.963c89.281,-80.27 149.946,-98.044 260.107,-76.259c92.901,18.329 249.286,-3.045 333.177,-45.648c33.902,-17.28 163.277,-103.66 287.508,-192.056l225.732,-160.705l100.616,-281.09l-34.889,-109.297c-45.957,-144.227 -157.969,-366.257 -298.041,-590.549c-62.599,-100.204 -163.215,-266.135 -223.551,-368.828c-98.044,-166.671 -132.604,-209.028 -320.711,-393.432c-311.618,-305.694 -505.362,-542.822 -586.928,-718.648c-215.364,-463.992 -279.321,-916.402 -197.693,-1397.736c19.605,-115.324 99.484,-387.013 119.747,-407.338c3.538,-3.538 11.17,47.726 16.951,113.864c47.808,544.9 190.04,1098.482 402.586,1566.65c169.716,373.909 198.084,415.135 495.899,721.055c291.294,299.255 490.653,473.949 822.781,720.972c172.76,128.572 662.467,465.185 717.434,493.245c26.599,13.577 -114.193,-117.258 -409.272,-380.183c-361.936,-322.48 -890.606,-848.578 -1093.585,-1088.36c-120.776,-142.561 -177.985,-226.617 -249.101,-365.722c-171.814,-336.284 -293.803,-700.298 -339.287,-1012.739c-27.154,-186.193 -11.15,-574.791 30.549,-742.984c106.869,-431.119 297.321,-812.269 577.691,-1156.349c103.249,-126.639 98.044,-126.886 -59.863,-2.571c-259.161,203.947 -489.624,481.91 -634.037,764.913l-80.27,157.27l-10.286,-109.215c-5.534,-60.028 -2.489,-185.535 6.83,-278.91c59.637,-594.971 300.695,-1029.546 802.621,-1446.594l69.429,-57.703l-121.434,54c-244.514,108.721 -451.69,252.166 -679.006,470.328c-134.209,128.737 -136.698,130.342 -125.61,77.39c19.934,-94.979 117.32,-343.689 178.315,-455.146c149.864,-273.952 407.503,-564.834 678.533,-766.045l152.6,-113.391l-88.54,-4.505c-48.775,-2.489 -140.38,1.851 -203.803,9.648c-63.319,7.714 -117.402,12.137 -120.117,9.71c-2.818,-2.407 70.067,-54.227 162.001,-115.139c302.546,-200.738 677.258,-357.267 1038.783,-434.102c213.43,-45.401 629.758,-49.331 838.601,-7.941c281.975,55.914 573.351,190.349 702.417,324.229l52.231,54.083l-74.901,87.676c-41.143,48.22 -116.744,125.836 -167.864,172.534c-68.462,62.517 -82.842,81.875 -54.474,73.358c52.396,-15.676 213.821,-97.077 266.772,-134.435c45.257,-31.907 51.429,-31.989 388.947,-3.147c131.37,11.17 80.188,-13.084 -119.583,-56.798c-91.276,-19.934 -165.848,-40.505 -165.848,-45.731c0,-5.225 13.906,-22.094 30.94,-37.523c37.111,-33.593 166.568,-33.511 411.658,0.473c510.834,70.725 861.353,230.628 1086.447,495.652c64.122,75.539 152.682,228.777 152.682,264.304c0,7.714 -76.588,-16.642 -170.127,-54.165c-93.621,-37.44 -178.623,-64.759 -188.991,-60.666c-10.45,4.094 3.6,16.54 31.248,27.71c74.263,29.829 61.242,44.208 -40.259,44.208c-239.062,0 -842.941,82.039 -1185.993,161.117c-177.841,40.979 -245.254,81.402 -391.189,234.804c-145.688,153.073 -214.706,311.618 -214.706,492.833c0,84.22 45.484,252.804 93.848,347.866l28.615,56.407l-80.517,-21.456c-497.668,-132.502 -974.414,38.181 -1239.767,443.75c-147.683,225.794 -212.134,458.993 -212.381,768.698c-0.473,661.664 335.091,1268.279 1126.459,2036.587c554.713,538.626 1438.077,1309.423 2158.33,1883.432c428.774,341.756 1146.29,878.304 1174.576,878.304c28.451,0 -573.906,-545.949 -1930.664,-1749.716c-880.731,-781.473 -1440.011,-1320.675 -1673.766,-1613.738c-420.031,-526.591 -619.164,-994.904 -619.884,-1458.011c-0.329,-221.145 31.413,-367.326 117.875,-542.493c227.748,-461.174 736.072,-607.746 1297.47,-374.074c173.974,72.494 421.224,244.534 603.323,419.948c367.553,353.975 584.83,672.197 979.639,1434.56c488.801,943.783 624.615,1202.697 755.286,1439.682c75.292,136.678 137.007,253.36 137.007,259.243c0,13.084 -246.633,-156.797 -453.706,-312.606c-507.707,-381.932 -956.106,-816.754 -1351.059,-1309.999c-62.682,-78.172 -115.941,-140.134 -118.513,-137.562c-2.571,2.571 74.572,247.106 171.485,543.378c96.892,296.21 174.365,540.477 172.205,542.658c-2.263,2.242 -73.05,-42.748 -157.27,-100.122c-563.949,-383.557 -1000.376,-795.297 -1492.242,-1407.878c-52.396,-65.253 -36.803,-30.446 58.979,131.72c321.842,544.489 698.241,972.645 1199.344,1364.061c127.688,99.813 647.923,449.777 656.192,441.487c10.533,-10.533 -61.859,-250.15 -267.986,-887.705c-4.094,-12.693 109.05,96.419 251.364,242.601c291.849,299.563 510.998,505.053 737.203,690.917c147.457,121.249 543.686,422.52 656.522,499.17c35.836,24.274 86.462,93.292 152.909,208.287c169.88,293.947 459.734,763.165 813.791,1317.466c28.451,44.599 46.286,80.929 39.703,80.764c-15.922,-0.391 -567.488,-395.509 -707.642,-506.904c-60.11,-47.726 -188.518,-149.062 -285.431,-225.156c-356.773,-280.288 -859.748,-718.483 -1167.355,-1016.997c-78.419,-76.115 -145.441,-135.402 -149.062,-131.802c-10.677,10.78 442.207,511.08 723.708,799.494c312.112,319.826 687.852,665.038 1009.695,927.635c228.694,186.687 239.062,197.775 445.334,477.096c116.209,157.249 353.749,470.081 527.785,695.011c174.138,224.991 337.189,436.097 362.266,469.135l45.648,60.11l-49.187,-25.488c-224.765,-116.188 -801.572,-476.52 -1265.399,-790.401c-154.925,-104.771 -281.563,-187.057 -281.563,-182.964c0,22.588 1087.558,1867.838 1507.753,2558.097c9.628,15.84 -25.159,-2.489 -196.315,-103.167c-214.068,-126.001 -485.366,-310.261 -749.258,-508.838l-247.744,-186.42l-155.336,-247.661c-85.413,-136.204 -311.31,-497.586 -501.988,-803.094c-190.699,-305.447 -438.998,-701.203 -551.894,-879.435c-112.835,-178.15 -229.353,-364.035 -258.914,-413.036c-96.604,-160.006 -84.467,-110.984 28.451,114.666c244.514,488.822 978.261,1905.032 1196.587,2309.551c20.901,38.819 27.977,63.978 16.725,59.637c-34.704,-13.269 -384.277,-243.979 -527.558,-348.03c-76.485,-55.605 -236.882,-179.035 -356.3,-274.26l-217.195,-173.007l-267.595,-433.299c-147.21,-238.26 -270.496,-430.316 -274.034,-426.778c-3.6,3.621 32.791,112.897 80.846,243.012c140.236,379.834 255.705,711.324 249.76,717.269c-7.55,7.55 -596.576,-549.488 -596.576,-564.196c0,-6.501 -33.676,-66.775 -74.901,-133.962c-41.143,-67.166 -168.749,-275.783 -283.579,-463.663l-208.843,-341.509l90.145,-94.835c69.038,-72.474 113.967,-142.787 191.11,-299.173c55.523,-112.485 100.924,-211.496 100.924,-220.095c0,-8.599 -78.193,61.077 -173.748,154.781c-181.997,178.459 -377.674,325.278 -466.543,349.779c-38.263,10.533 -108.803,73.461 -261.485,233.117c-192.55,201.314 -209.09,223.243 -209.09,276.523c0,52.314 6.665,61.879 68.853,98.27c79.633,46.78 126.166,113.72 140.319,202.26c9.154,57.374 17.033,65.891 97.057,105.039c47.973,23.369 187.16,97.797 309.397,165.375c215.035,118.842 231.101,131.391 501.432,390.058c321.657,307.854 435.85,407.338 647.676,563.867c83.891,61.962 155.645,124.952 159.594,139.99c4.896,18.802 31.824,31.968 86.709,42.419c89.836,17.116 491.147,160.726 550.125,196.87c43.941,27.01 530.767,266.546 767.567,377.694c86.956,40.814 158.154,77.39 158.154,81.155c0,3.703 -29.582,0.967 -65.582,-6.192c-36.083,-7.056 -225.321,-41.225 -420.421,-75.765c-195.204,-34.56 -394.81,-76.506 -443.667,-93.148c-64.039,-21.847 -130.095,-30.364 -236.964,-30.364c-134.435,0 -147.21,2.489 -138.55,26.99c5.307,14.873 39.065,98.682 74.983,186.276c60.666,147.93 76.012,170.6 217.689,320.711c83.809,88.869 149.782,163.688 146.573,166.26c-3.209,2.654 -126.556,-67.187 -274.178,-155.171Zm-2099.906,-2303.935c-30.22,-19.522 -50.709,-19.522 -38.572,0c5.225,8.517 21.209,15.346 35.589,15.182c22.505,-0.165 22.896,-2.242 2.983,-15.182Zm-1058.717,-522.889c70.396,-36.247 79.879,-37.296 177.677,-20.572c150.173,25.797 294.667,0.082 390.942,-69.429c40.094,-29.006 158.545,-142.397 263.152,-252.002l190.143,-199.133l36,-177.265l36,-177.183l-42.192,-120.056c-63.566,-181.051 -156.138,-381.233 -251.117,-542.987c-95.946,-163.359 -249.842,-402.504 -259.079,-402.504c-3.291,0 11.973,46.924 33.984,104.133c115.653,300.551 228.386,726.033 243.897,920.27c9.957,124.15 8.517,136.369 -14.626,127.441c-42.748,-16.396 -461.976,-312.75 -760.511,-537.597c-154.925,-116.6 -281.563,-210.139 -281.563,-207.794c0,2.325 13.166,76.732 29.397,165.293c16.169,88.622 33.923,206.271 39.456,261.403l10.06,100.286l-142.89,83.891c-78.583,46.121 -174.447,90.721 -213.019,99.155c-62.599,13.66 -341.92,187.88 -460.845,287.447c-52.807,44.188 -38.654,91.132 41.699,138.056c50.071,29.253 78.028,60.912 108.001,122.298l40.423,82.78l300.859,113.864c165.457,62.599 317.173,121.023 337.086,129.766l36.329,15.84l-40.423,31.824c-39.929,31.413 -86.133,104.627 -86.133,136.513c0,9.01 36.638,-26.825 81.484,-79.55c48.055,-56.654 111.93,-111.621 155.809,-134.188Zm1220.718,-7632.141c283.579,-44.208 680.94,-60.501 991.283,-40.814c159.121,10.039 306.64,22.814 327.87,28.286c26.517,6.912 33.737,4.978 23.143,-6.027c-16.725,-17.445 -172.616,-50.791 -416.575,-89.198c-84.858,-13.351 -303.595,-28.06 -486.004,-32.709c-344.656,-8.763 -561.872,8.517 -837.017,66.611c-123.738,26.208 -156.941,51.182 -69.429,52.396c27.566,0.329 84.858,13.577 127.297,29.5c81.237,30.281 95.37,29.973 339.431,-8.043Zm-754.01,-314.046c35.116,-15.984 76.259,-50.133 91.544,-76.012c21.209,-35.753 45.545,-51.182 102.529,-64.842l74.737,-17.918l-129.622,-81.402c-225.876,-141.841 -284.875,-145.544 -588.615,-36.741l-185.144,66.302l84.858,12.22c121.825,17.506 157.167,35.671 223.222,114.748c94.753,113.308 201.149,140.545 326.492,83.644Zm-4403.595,9042.755c27.874,-23.966 137.562,-113.144 243.794,-198.331c163.77,-131.226 287.94,-258.585 395.201,-405.404c15.429,-21.127 1.769,-23.945 -115.715,-24.028c-121.249,-0.165 -157.661,-8.27 -407.173,-91.523l-274.014,-91.379l-385.882,28.121c-212.299,15.511 -388.926,25.159 -392.629,21.456c-3.682,-3.6 131.884,-58.094 301.189,-121.002c169.304,-62.928 307.607,-118.143 307.278,-122.792c-0.309,-4.67 -41.863,-39.292 -92.325,-76.897c-50.38,-37.625 -88.787,-71.281 -85.166,-74.901c3.518,-3.538 140.545,31.989 304.459,78.995c327.705,93.848 447.761,123.594 599.477,148.095c94.814,15.264 111.539,13.104 277.716,-36.556c306.085,-91.544 783.325,-269.92 786.534,-294.112c1.131,-8.434 -87.018,-65.171 -195.821,-126.083c-268.151,-149.946 -264.777,-147.622 -655.637,-441.651c-305.365,-229.743 -368.684,-270.393 -555.844,-357.184c-227.09,-105.347 -300.695,-123.512 -587.339,-145.297l-165.93,-12.61l-104.072,-99.566c-57.21,-54.803 -268.788,-216.084 -470.164,-358.398c-201.458,-142.314 -369.569,-264.201 -373.662,-270.887c-4.094,-6.665 212.052,71.774 480.367,174.221c368.046,140.545 489.707,193.352 495.343,215.035c6.974,26.517 20.489,28.06 171.238,20.098c90.083,-4.752 204.111,-13.022 253.524,-18.247c85.496,-9.072 105.429,-3.538 424.289,118.451c262.535,100.451 363.87,147.457 470.822,218.738c74.963,49.968 140.134,86.936 144.886,82.204c4.731,-4.752 -9.401,-59.143 -31.433,-120.858c-22.012,-61.715 -75.518,-247.579 -119.007,-413.119c-74.407,-283.435 -87.018,-316.453 -218.882,-570.861c-76.917,-148.506 -132.604,-263.008 -123.759,-254.573c8.846,8.517 103.331,112.341 209.81,230.71l193.743,215.199l155.501,386.52l155.48,386.437l221.309,272.409l221.391,272.327l-67.413,18.802c-121.352,34.005 -108.577,53.363 37.749,56.819c98.291,2.325 172.143,15.346 280.062,49.187c80.599,25.303 176.052,54.556 212.134,64.842c36,10.368 65.582,21.703 65.582,25.159c0,3.456 -18,29.808 -39.95,58.567c-119.007,156.056 -107.425,359.612 32.236,567.097c59.452,88.314 64.286,103.66 32.627,103.66c-11.829,0 -223.881,55.605 -471.377,123.43c-247.6,67.907 -452.986,123.43 -456.525,123.43c-3.538,0 -121.578,100.924 -262.205,224.189l-255.767,224.21l-299.173,130.65c-164.511,71.918 -303.287,130.671 -308.347,130.671c-5.061,0 13.577,-19.522 41.472,-43.468Z" style="fill:#fff;fill-rule:nonzero;"/></svg>